<svg xmlns="http://www.w3.org/2000/svg" width="99.099" height="74.183" viewBox="0 0 99.099 74.183">
  <g id="cat" transform="translate(0.005 0.003)">
    <g id="Group_3" data-name="Group 3">
      <path id="Path_11" data-name="Path 11" d="M15.97,57.68,4.36,60.94C.69,61.97.52,59.25.52,59.25c-.16-1.83,2.47-2.53,2.47-2.53l10.57-3.06A25.024,25.024,0,0,0,15.97,57.68Z" fill="#1d1d1b"/>
      <path id="Path_12" data-name="Path 12" d="M29.15,51.53a2.035,2.035,0,0,0-2.4-1.62l-.16-2.48a2.467,2.467,0,0,0,2.47-1.55c.24-.59.42-1.9-1.4-2.77L11.55,38.45c.15-1.04.37-2.11.64-3.21,0,0,1.62-3.99,1.18-7.23,0,0-6.94-29.69,1.77-25.26,0,0,7.39,2.07,10.79,5.17,0,0,3.57,3.49,5.9,1.92,0,0,15.22-12.41,32.2-1.18,0,0,2.81,1.79,7.39-1.76,0,0,16.25-9.86,15.66-2.94,0,0-2.96,18.43-2.81,25.52,0,0-.15,2.96.74,4.43a22.461,22.461,0,0,1,1.09,5.13L72.24,42.57s-2.66.62-2.55,2.45a2.129,2.129,0,0,0,2.21,1.99l-.14,2.91a2.124,2.124,0,0,0-2.04,1.02s-1.31,2.39,2.34,3.48l9.16,2.72c-4.08,5.48-11.24,10.74-23.54,14.29,0,0-12.11,3.55-23.33-1.33,0,0-11.59-3.21-18.38-12.42l10.99-3.09s2.61-.76,2.19-3.06Zm39.61-20.2a3.915,3.915,0,1,0-3.91,3.91A3.918,3.918,0,0,0,68.76,31.33ZM53.77,49.37c3.16-4.32,0-5.15,0-5.15-3.88-1.22-9.69,0-9.69,0-5.27,2.27,1.88,8.25,1.88,8.25,3.99,4.82,7.81-3.1,7.81-3.1ZM36.41,31.33a3.91,3.91,0,1,0-3.91,3.91A3.918,3.918,0,0,0,36.41,31.33Z" fill="#bfbebe"/>
      <path id="Path_13" data-name="Path 13" d="M26.48,49.93,13.56,53.66a24.211,24.211,0,0,1-2.37-10.64L25.57,47.3a3.979,3.979,0,0,0,1.02.13l.16,2.48A2.451,2.451,0,0,0,26.48,49.93Z" fill="#bfbebe"/>
      <path id="Path_14" data-name="Path 14" d="M73.16,50.12a5.338,5.338,0,0,0-1.4-.2l.14-2.91a5.3,5.3,0,0,0,1.58-.18l12.71-3.15a25.141,25.141,0,0,1-2.52,9.48L73.16,50.12Z" fill="#bfbebe"/>
      <path id="Path_15" data-name="Path 15" d="M96.64,56.92c1.83.87,1.65,2.19,1.41,2.78-.87,2.17-3.49,1.41-3.49,1.41L81.22,57.14a25.18,25.18,0,0,0,2.45-3.98l12.97,3.76Z" fill="#1d1d1b"/>
      <path id="Path_16" data-name="Path 16" d="M86.1,39.04a27.924,27.924,0,0,1,.09,4.64L73.48,46.83a5.3,5.3,0,0,1-1.58.18,2.129,2.129,0,0,1-2.21-1.99c-.11-1.83,2.55-2.45,2.55-2.45Z" fill="#1d1d1b"/>
      <path id="Path_17" data-name="Path 17" d="M29.15,51.53c.42,2.3-2.19,3.06-2.19,3.06L15.97,57.68a25.024,25.024,0,0,1-2.41-4.02l12.92-3.73c.09,0,.18-.02.27-.02A2.035,2.035,0,0,1,29.15,51.53Z" fill="#1d1d1b"/>
      <path id="Path_18" data-name="Path 18" d="M98.55,38.2c.35,2.32-2.29,2.99-2.29,2.99L86.19,43.68a27.924,27.924,0,0,0-.09-4.64l9.83-2.51c2.01-.18,2.53,1.05,2.62,1.67Z" fill="#1d1d1b"/>
      <path id="Path_19" data-name="Path 19" d="M53.77,44.22s3.16.83,0,5.15c0,0-3.82,7.92-7.81,3.1,0,0-7.15-5.98-1.88-8.25,0,0,5.81-1.22,9.69,0Z" fill="#ddb2d4"/>
      <path id="Path_20" data-name="Path 20" d="M27.66,43.11c1.82.87,1.64,2.18,1.4,2.77a2.467,2.467,0,0,1-2.47,1.55,3.979,3.979,0,0,1-1.02-.13L11.19,43.02a29.522,29.522,0,0,1,.36-4.57Z" fill="#1d1d1b"/>
      <path id="Path_21" data-name="Path 21" d="M73.16,50.12l10.51,3.04a25.181,25.181,0,0,1-2.45,3.98l-9.16-2.72c-3.65-1.09-2.34-3.48-2.34-3.48a2.124,2.124,0,0,1,2.04-1.02,5.243,5.243,0,0,1,1.4.2Z" fill="#1d1d1b"/>
      <path id="Path_22" data-name="Path 22" d="M4.17,36.31l7.38,2.14a29.522,29.522,0,0,0-.36,4.57L3.08,40.6C-.58,39.52.73,37.12.73,37.12c.84-1.63,3.44-.81,3.44-.81Z" fill="#1d1d1b"/>
    </g>
    <g id="Group_4" data-name="Group 4">
      <path id="Path_23" data-name="Path 23" d="M13.56,53.66a24.211,24.211,0,0,1-2.37-10.64" fill="none" stroke="#1d1d1b" stroke-miterlimit="10" stroke-width="3"/>
      <path id="Path_24" data-name="Path 24" d="M81.22,57.14c-4.08,5.48-11.24,10.74-23.54,14.29,0,0-12.11,3.55-23.33-1.33,0,0-11.59-3.21-18.38-12.42" fill="none" stroke="#1d1d1b" stroke-miterlimit="10" stroke-width="3"/>
      <path id="Path_25" data-name="Path 25" d="M86.19,43.68a25.141,25.141,0,0,1-2.52,9.48" fill="none" stroke="#1d1d1b" stroke-miterlimit="10" stroke-width="3"/>
      <path id="Path_26" data-name="Path 26" d="M11.55,38.45c.15-1.04.37-2.11.64-3.21,0,0,1.62-3.99,1.18-7.23,0,0-6.94-29.69,1.77-25.26,0,0,7.39,2.07,10.79,5.17,0,0,3.57,3.49,5.9,1.92,0,0,15.22-12.41,32.2-1.18,0,0,2.81,1.79,7.39-1.76,0,0,16.25-9.86,15.66-2.94,0,0-2.96,18.43-2.81,25.52,0,0-.15,2.96.74,4.43a22.461,22.461,0,0,1,1.09,5.13" fill="none" stroke="#1d1d1b" stroke-miterlimit="10" stroke-width="3"/>
      <path id="Path_27" data-name="Path 27" d="M36.41,31.33a3.91,3.91,0,1,1-3.91-3.92,3.909,3.909,0,0,1,3.91,3.92Z" fill="none" stroke="#1d1d1b" stroke-miterlimit="10" stroke-width="3"/>
      <path id="Path_28" data-name="Path 28" d="M68.76,31.33a3.915,3.915,0,1,1-3.91-3.92,3.909,3.909,0,0,1,3.91,3.92Z" fill="none" stroke="#1d1d1b" stroke-miterlimit="10" stroke-width="3"/>
      <path id="Path_29" data-name="Path 29" d="M44.08,44.22s5.81-1.22,9.69,0c0,0,3.16.83,0,5.15,0,0-3.82,7.92-7.81,3.1,0,0-7.15-5.98-1.88-8.25Z" fill="none" stroke="#1d1d1b" stroke-miterlimit="10" stroke-width="3"/>
      <path id="Path_30" data-name="Path 30" d="M71.76,49.92a2.124,2.124,0,0,0-2.04,1.02s-1.31,2.39,2.34,3.48l9.16,2.72,13.34,3.97s2.62.76,3.49-1.41c.24-.59.42-1.91-1.41-2.78L83.67,53.16,73.16,50.12a5.338,5.338,0,0,0-1.4-.2Z" fill="none" stroke="#1d1d1b" stroke-miterlimit="10" stroke-width="1"/>
      <path id="Path_31" data-name="Path 31" d="M71.9,47.01a5.3,5.3,0,0,0,1.58-.18l12.71-3.15,10.07-2.49s2.64-.67,2.29-2.99c-.09-.62-.61-1.85-2.62-1.67L86.1,39.04,72.24,42.57s-2.66.62-2.55,2.45a2.129,2.129,0,0,0,2.21,1.99Z" fill="none" stroke="#1d1d1b" stroke-miterlimit="10" stroke-width="1"/>
      <path id="Path_32" data-name="Path 32" d="M13.56,53.66,2.99,56.72s-2.63.7-2.47,2.53c0,0,.17,2.72,3.84,1.69l11.61-3.26,10.99-3.09s2.61-.76,2.19-3.06a2.035,2.035,0,0,0-2.4-1.62,2.451,2.451,0,0,0-.27.02L13.56,53.66Z" fill="none" stroke="#1d1d1b" stroke-miterlimit="10" stroke-width="1"/>
      <path id="Path_33" data-name="Path 33" d="M11.55,38.45,4.17,36.31s-2.6-.82-3.44.81c0,0-1.31,2.4,2.35,3.48l8.11,2.42L25.57,47.3a3.979,3.979,0,0,0,1.02.13,2.467,2.467,0,0,0,2.47-1.55c.24-.59.42-1.9-1.4-2.77L11.55,38.45Z" fill="none" stroke="#1d1d1b" stroke-miterlimit="10" stroke-width="1"/>
    </g>
  </g>
</svg>