<svg xmlns="http://www.w3.org/2000/svg" width="93.398" height="77.045" viewBox="0 0 93.398 77.045">
  <g id="dog" transform="translate(-140.684 0.115)">
    <g id="Group_1" data-name="Group 1">
      <path id="Path_1" data-name="Path 1" d="M215.73,19.22s1.44,19.16,1.22,29.91a31.747,31.747,0,0,1-1.98,8.04c-2.61,6.88-8.58,15.96-22.06,17.77,0,0-25.45,4.58-33.24-16.81a37.156,37.156,0,0,1-1.99-9V28.3A24.872,24.872,0,0,1,166.9,9.12a34.272,34.272,0,0,1,15.16-6.74s8.08-1.99,13.95,0c0,0,8.39,1.76,14.34,7.49h.01a18.269,18.269,0,0,1,5.37,9.35ZM203.4,33.78a3.915,3.915,0,1,0-3.91,3.91A3.909,3.909,0,0,0,203.4,33.78Zm-7.83,17.7c0-2.28-3.84-4.12-8.58-4.12s-8.59,1.84-8.59,4.12,3.84,4.13,8.59,4.13S195.57,53.76,195.57,51.48Zm-16.32-17.7a3.915,3.915,0,1,0-3.91,3.91A3.909,3.909,0,0,0,179.25,33.78Z" fill="#91786a"/>
      <path id="Path_2" data-name="Path 2" d="M186.99,47.36c4.74,0,8.58,1.84,8.58,4.12s-3.84,4.13-8.58,4.13-8.59-1.85-8.59-4.13S182.24,47.36,186.99,47.36Z" fill="#1d1d1b"/>
      <path id="Path_3" data-name="Path 3" d="M166.89,9.11h.01a24.9,24.9,0,0,0-9.22,19.19V49.13a37.155,37.155,0,0,0,1.99,9c-1.2,2.02-7.67,1.01-7.67,1.01-13.52-2.15-9.09-24.38-9.09-24.38,3.55-20.75,23.98-25.65,23.98-25.65Z" fill="#756259"/>
      <path id="Path_4" data-name="Path 4" d="M231.57,35.5s4.99,16.62-7.31,22.82c0,0-5.96,3.46-9.29-1.15a31.746,31.746,0,0,0,1.98-8.04c.22-10.75-1.22-29.91-1.22-29.91a18.269,18.269,0,0,0-5.37-9.35c.49.15,17.4,5.22,21.21,25.63Z" fill="#756259"/>
    </g>
    <g id="Group_2" data-name="Group 2">
      <path id="Path_5" data-name="Path 5" d="M179.25,33.78a3.915,3.915,0,1,1-3.91-3.91A3.909,3.909,0,0,1,179.25,33.78Z" fill="none" stroke="#1d1d1b" stroke-miterlimit="10" stroke-width="3"/>
      <path id="Path_6" data-name="Path 6" d="M203.4,33.78a3.915,3.915,0,1,1-3.91-3.91A3.909,3.909,0,0,1,203.4,33.78Z" fill="none" stroke="#1d1d1b" stroke-miterlimit="10" stroke-width="3"/>
      <path id="Path_7" data-name="Path 7" d="M195.57,51.48c0,2.28-3.84,4.13-8.58,4.13s-8.59-1.85-8.59-4.13,3.84-4.12,8.59-4.12S195.57,49.2,195.57,51.48Z" fill="none" stroke="#1d1d1b" stroke-miterlimit="10" stroke-width="2"/>
      <path id="Path_8" data-name="Path 8" d="M210.36,9.87a18.269,18.269,0,0,1,5.37,9.35s1.44,19.16,1.22,29.91a31.747,31.747,0,0,1-1.98,8.04c-2.61,6.88-8.58,15.96-22.06,17.77,0,0-25.45,4.58-33.24-16.81a37.156,37.156,0,0,1-1.99-9V28.3A24.872,24.872,0,0,1,166.9,9.12a34.272,34.272,0,0,1,15.16-6.74s8.08-1.99,13.95,0c0,0,8.39,1.76,14.34,7.49" fill="none" stroke="#1d1d1b" stroke-miterlimit="10" stroke-width="3"/>
      <path id="Path_9" data-name="Path 9" d="M166.89,9.11s-20.43,4.9-23.98,25.65c0,0-4.43,22.23,9.09,24.38,0,0,6.47,1.01,7.67-1.01" fill="none" stroke="#1d1d1b" stroke-miterlimit="10" stroke-width="3"/>
      <path id="Path_10" data-name="Path 10" d="M210.35,9.87h.01c.49.15,17.4,5.22,21.21,25.63,0,0,4.99,16.62-7.31,22.82,0,0-5.96,3.46-9.29-1.15" fill="none" stroke="#1d1d1b" stroke-miterlimit="10" stroke-width="3"/>
    </g>
  </g>
</svg>