<?xml version="1.0" encoding="UTF-8"?>
<svg id="Vrstva_1" data-name="Vrstva 1" xmlns="http://www.w3.org/2000/svg" viewBox="0 0 111.02 111.96">
  <defs>
    <style>
      .cls-1 {
        fill: #7f6c66;
      }

      .cls-2 {
        fill: #8f9193;
      }

      .cls-3 {
        fill: none;
        stroke: #1d1d1b;
        stroke-miterlimit: 10;
        stroke-width: 3px;
      }

      .cls-4 {
        fill: #a6cbed;
      }

      .cls-5 {
        fill: #d3b8b2;
      }

      .cls-6 {
        fill: #c6dcf4;
      }
    </style>
  </defs>
  <g>
    <path class="cls-5" d="M63.06,51.92c.4,2.42-.51,4.59-2.03,4.85-2.28,.38-3-.97-3.5-3.93-.4-2.42,.51-4.59,2.04-4.84,1.52-.25,3.09,1.5,3.49,3.92Z"/>
    <path class="cls-5" d="M70.08,47.06c1.53,.19,2.53,2.32,2.23,4.76-.3,2.43-1.79,4.25-3.33,4.06-1.53-.19-2.53-2.32-2.23-4.75,.3-2.44,1.79-4.26,3.33-4.07Z"/>
    <path class="cls-5" d="M77.86,53.91c1.21,.34,1.77,2.18,1.23,4.11-.53,1.94-1.96,3.23-3.18,2.89-1.22-.33-1.77-2.18-1.23-4.11,.53-1.93,1.96-3.23,3.18-2.89Z"/>
    <path class="cls-6" d="M54.06,12.76h44.55l-10.53,17.11-.24,.38H43.19c.14-.5,.43-1.17,1-2.03l9.6-15.46h.27Z"/>
    <path class="cls-5" d="M54.96,57.18c.88,1.8,.68,3.72-.45,4.27-1.14,.56-2.78-.45-3.66-2.25-.89-1.8-.68-3.71,.45-4.27,1.14-.56,2.78,.45,3.66,2.25Z"/>
    <polygon class="cls-4" points="109.52 29.39 88.08 29.87 98.61 12.76 108.46 27.81 109.67 29.26 109.52 29.39"/>
    <path class="cls-6" d="M51,89.06c2.42-5.43-3.58-5.33-3.58-5.33-1.03,.29-1.69-.88-1.69-.88-.96-.74-1.85-1.25-2.66-1.58h0V31.22s-.06-.33,.12-.97h44.65V110.22l-27.24,.08v-.43c-.08-.42-.44-1.09-.44-1.09l-2.78-16.78c-.22-2.92-3.15-2.92-3.15-2.92h-3.23v-.02Zm28.09-31.04c.54-1.93-.02-3.77-1.23-4.11-1.22-.34-2.65,.96-3.18,2.89-.54,1.93,0,3.78,1.23,4.11,1.22,.34,2.65-.95,3.18-2.89Zm-4.3,10.47c0-5.05-4.1-9.15-9.15-9.15s-9.14,4.1-9.14,9.15,4.09,9.14,9.14,9.14,9.15-4.09,9.15-9.14Zm-2.48-16.67c.3-2.44-.7-4.57-2.23-4.76-1.54-.19-3.03,1.63-3.33,4.07-.3,2.43,.7,4.56,2.23,4.75,1.54,.19,3.03-1.63,3.33-4.06Zm-11.28,4.95c1.52-.26,2.43-2.43,2.03-4.85s-1.97-4.17-3.49-3.92c-1.53,.25-2.44,2.42-2.04,4.84,.5,2.96,1.22,4.31,3.5,3.93Zm-6.52,4.68c1.13-.55,1.33-2.47,.45-4.27s-2.52-2.81-3.66-2.25c-1.13,.56-1.34,2.47-.45,4.27,.88,1.8,2.52,2.81,3.66,2.25Z"/>
    <path class="cls-1" d="M47.42,83.73s6-.1,3.58,5.33v.02H9.92s-.66-5.2,5.49-4.98c0,0,3.22-8.28,9.96-.59,0,0,4.25-6.01,10.69-.22,0,0,2.25-4.01,7.01-2.03h0c.81,.34,1.7,.85,2.66,1.59,0,0,.66,1.17,1.69,.88Z"/>
    <path class="cls-4" d="M87.84,30.25l.24-.38,21.44-.48V107.82c0,2.57-2.49,2.35-2.49,2.35l-19.19,.05V30.25Z"/>
    <path class="cls-2" d="M60.16,108.78s.36,.67,.44,1.09v.43l-56.76,.16c-3.59,.15-1.98-3.22-1.98-3.22l2.57-14.58c.36-4.02,2.19-3.58,2.19-3.58H54.23s2.93,0,3.15,2.92l2.78,16.78Z"/>
    <path class="cls-6" d="M98.61,2.95V12.76H54.06l-.35-9.3c-.14-2.34,2.27-1.93,2.27-1.93l40.28,.03c2.51-.27,2.35,1.39,2.35,1.39Z"/>
    <path class="cls-5" d="M65.64,59.34c5.05,0,9.15,4.1,9.15,9.15s-4.1,9.14-9.15,9.14-9.14-4.09-9.14-9.14,4.09-9.15,9.14-9.15Z"/>
  </g>
  <g>
    <path class="cls-3" d="M43.07,81.27c.81,.33,1.7,.84,2.66,1.58,0,0,.66,1.17,1.69,.88,0,0,6-.1,3.58,5.33"/>
    <path class="cls-3" d="M9.92,89.08s-.66-5.2,5.49-4.98c0,0,3.22-8.28,9.96-.59,0,0,4.25-6.01,10.69-.22,0,0,2.25-4.01,7.01-2.03"/>
    <path class="cls-3" d="M43.07,81.27h0V31.22s-.06-.33,.12-.97c.14-.5,.43-1.17,1-2.03l9.6-15.46h44.82V2.95s.16-1.66-2.35-1.39l-40.28-.03s-2.41-.41-2.27,1.93l.35,9.3,.02,.42"/>
    <polyline class="cls-3" points="43.19 30.25 87.84 30.25 88.08 29.87 98.61 12.76 108.46 27.81 109.67 29.26 109.78 29.39"/>
    <line class="cls-3" x1="87.84" y1="30.25" x2="87.84" y2="109.54"/>
    <path class="cls-3" d="M88.08,29.87l21.44-.48V107.82c0,2.57-2.49,2.35-2.49,2.35l-19.19,.05-27.24,.08-56.76,.16c-3.59,.15-1.98-3.22-1.98-3.22l2.57-14.58c.36-4.02,2.19-3.58,2.19-3.58H54.23s2.93,0,3.15,2.92l2.78,16.78s.36,.67,.44,1.09"/>
    <path class="cls-3" d="M74.79,68.49c0,5.05-4.1,9.14-9.15,9.14s-9.14-4.09-9.14-9.14,4.09-9.15,9.14-9.15,9.15,4.1,9.15,9.15Z"/>
    <path class="cls-3" d="M72.31,51.82c-.3,2.43-1.79,4.25-3.33,4.06-1.53-.19-2.53-2.32-2.23-4.75,.3-2.44,1.79-4.26,3.33-4.07,1.53,.19,2.53,2.32,2.23,4.76Z"/>
    <path class="cls-3" d="M63.06,51.92c.4,2.42-.51,4.59-2.03,4.85-2.28,.38-3-.97-3.5-3.93-.4-2.42,.51-4.59,2.04-4.84,1.52-.25,3.09,1.5,3.49,3.92Z"/>
    <path class="cls-3" d="M54.96,57.18c.88,1.8,.68,3.72-.45,4.27-1.14,.56-2.78-.45-3.66-2.25-.89-1.8-.68-3.71,.45-4.27,1.14-.56,2.78,.45,3.66,2.25Z"/>
    <path class="cls-3" d="M79.09,58.02c-.53,1.94-1.96,3.23-3.18,2.89-1.22-.33-1.77-2.18-1.23-4.11,.53-1.93,1.96-3.23,3.18-2.89,1.21,.34,1.77,2.18,1.23,4.11Z"/>
  </g>
</svg>
