<?xml version="1.0" encoding="UTF-8"?>
<svg id="Vrstva_1" data-name="Vrstva 1" xmlns="http://www.w3.org/2000/svg" viewBox="0 0 92.39 115.51">
  <defs>
    <style>
      .cls-1 {
        stroke-width: 3px;
      }

      .cls-1, .cls-2 {
        fill: none;
        stroke: #1d1d1b;
        stroke-miterlimit: 10;
      }

      .cls-3 {
        fill: #bfbebe;
      }

      .cls-4 {
        fill: #c6dcf4;
      }

      .cls-5 {
        fill: #666765;
      }

      .cls-6 {
        fill: #1d1d1b;
      }
    </style>
  </defs>
  <g>
    <path class="cls-6" d="M67.77,73.78c-1.79,.02-1.54-1.24-1.54-1.24,.15-.85,1.43-.85,1.43-.85l3.31-.07c.01,.35,.02,.7,.02,1.05s0,.71-.03,1.06l-3.19,.05Z"/>
    <path class="cls-5" d="M89.65,5.08l.3,8.04s0,7.62-8.44,7.94H11.75s-7.86,.45-8.87-7.1V5.81s-.05-4.31,4.8-4.28H84.74s4.91-.62,4.91,3.55Z"/>
    <path class="cls-4" d="M70.97,71.62l-3.31,.07s-1.28,0-1.43,.85c0,0-.25,1.26,1.54,1.24l3.19-.05c-.53,12.86-10.82,23.18-23.59,23.63v-3.65s.04-1.28-.81-1.45c0,0-1.26-.28-1.27,1.52l-.03,3.57c-12.47-.62-22.49-10.65-23.22-23.2l3.17-.05c.06,0,1.29-.01,1.44-.84,0,0,.26-1.26-1.54-1.24l-3.11,.02c.32-12.94,10.51-23.42,23.27-24.05l.03,3.67c0,.06,.01,1.28,.84,1.44,0,0,1.26,.27,1.25-1.53v-3.59c12.76,.46,23.04,10.78,23.58,23.64Zm-16.17-5.6s.91-.91,.21-1.77c-.18-.23-.69-.6-1.46-.05l-8.17,8.13s-.93,.89-.44,1.61c0,0,.68,1.08,1.97-.18l7.89-7.74Z"/>
    <path class="cls-6" d="M20.98,74.17v-2.12s1.02-.01,1.02-.01c-.01,.21-.01,.42-.01,.63,0,.5,.01,.99,.05,1.48l-1.06,.02Z"/>
    <path class="cls-6" d="M45.26,47.42h2.12v.56c-.29-.01-.59-.02-.89-.02-.41,0-.82,.01-1.22,.03v-.57Z"/>
    <rect class="cls-3" x="39.18" y="21.06" width="14.27" height="10.82"/>
    <path class="cls-5" d="M90.42,94.4s3.85,14.92-10.58,19.35c-2.4,.73-66.76-.35-66.76-.35-16.92-2.78-10.31-21.86-10.31-21.86L14.26,42.39c2.16-9.46,12.11-10.51,12.11-10.51h39.13s9.81,.07,12.8,10.51l12.12,52.01Zm-18.5-20.68l-.02-2.12-.93,.02c-.54-12.86-10.82-23.18-23.59-23.64v-.56h-2.12v.57c-12.75,.63-22.94,11.11-23.26,24.05h-1.03s.01,2.13,.01,2.13l1.06-.02c.73,12.55,10.75,22.58,23.22,23.2v.57l2.11,.03v-.59c12.77-.45,23.06-10.77,23.59-23.63h.96Z"/>
    <path class="cls-6" d="M71.92,73.72h-.96c.02-.34,.03-.69,.03-1.05s0-.7-.02-1.05l.93-.02,.02,2.12Z"/>
    <path class="cls-6" d="M45.29,93.78c.01-1.8,1.27-1.52,1.27-1.52,.85,.17,.82,1.45,.82,1.45v3.65c-.3,.01-.59,.02-.89,.02-.41,0-.82,0-1.23-.03l.03-3.57Z"/>
    <path class="cls-6" d="M47.37,97.95l-2.11-.03v-.57c.41,.02,.82,.03,1.23,.03,.3,0,.59,0,.88-.02v.59Z"/>
    <path class="cls-6" d="M25.11,72.02c1.8-.02,1.54,1.24,1.54,1.24-.15,.83-1.38,.84-1.44,.84l-3.17,.05c-.04-.49-.05-.98-.05-1.48,0-.21,0-.42,.01-.63l3.11-.02Z"/>
    <path class="cls-6" d="M45.38,72.33l8.17-8.13c.77-.55,1.28-.18,1.46,.05,.7,.86-.21,1.77-.21,1.77l-7.89,7.74c-1.29,1.26-1.97,.18-1.97,.18-.49-.72,.44-1.61,.44-1.61Z"/>
    <path class="cls-6" d="M45.3,51.66l-.03-3.67c.4-.02,.81-.03,1.22-.03,.3,0,.6,.01,.89,.02v3.59c.02,1.8-1.24,1.53-1.24,1.53-.83-.16-.84-1.38-.84-1.44Z"/>
  </g>
  <g>
    <path class="cls-2" d="M46.91,73.76l7.89-7.74s.91-.91,.21-1.77c-.18-.23-.69-.6-1.46-.05l-8.17,8.13s-.93,.89-.44,1.61c0,0,.68,1.08,1.97-.18Z"/>
    <path class="cls-2" d="M45.26,47.42v.57s.04,3.67,.04,3.67c0,.06,.01,1.28,.84,1.44,0,0,1.26,.27,1.25-1.53v-3.59s-.01-.56-.01-.56"/>
    <path class="cls-1" d="M22,72.04c.32-12.94,10.51-23.42,23.27-24.05,.4-.02,.81-.03,1.22-.03,.3,0,.6,.01,.89,.02,12.77,.46,23.05,10.78,23.59,23.64"/>
    <path class="cls-1" d="M45.26,97.35c-12.47-.62-22.49-10.65-23.22-23.2"/>
    <path class="cls-1" d="M70.96,73.73c-.53,12.86-10.82,23.18-23.59,23.63"/>
    <path class="cls-2" d="M47.37,97.95v-4.24s.04-1.28-.81-1.45c0,0-1.26-.28-1.27,1.52l-.03,3.57v.57"/>
    <path class="cls-2" d="M71.9,71.6l-.93,.02-3.31,.07s-1.28,0-1.43,.85c0,0-.25,1.26,1.54,1.24l3.19-.05h.96"/>
    <path class="cls-2" d="M20.98,74.17l1.06-.02,3.17-.05c.06,0,1.29-.01,1.44-.84,0,0,.26-1.26-1.54-1.24l-3.11,.02h-1.03"/>
    <path class="cls-1" d="M39.18,21.06H11.75s-7.86,.45-8.87-7.1V5.81s-.05-4.31,4.8-4.28H84.74s4.91-.62,4.91,3.55l.3,8.04s0,7.62-8.44,7.94H39.18Z"/>
    <path class="cls-1" d="M39.18,31.88h-12.81s-9.95,1.05-12.11,10.51L2.77,91.54s-6.61,19.08,10.31,21.86c0,0,64.36,1.08,66.76,.35,14.43-4.43,10.58-19.35,10.58-19.35l-12.12-52.01c-2.99-10.44-12.8-10.51-12.8-10.51h-26.32Z"/>
    <line class="cls-1" x1="39.18" y1="21.06" x2="39.18" y2="31.88"/>
    <line class="cls-1" x1="53.45" y1="21.06" x2="53.45" y2="31.88"/>
  </g>
</svg>